<svg width="30" height="30" viewBox="0 0 30 30" fill="none" xmlns="http://www.w3.org/2000/svg">
<path fill-rule="evenodd" clip-rule="evenodd" d="M15 4.375C9.14125 4.375 4.375 9.14125 4.375 15C4.375 20.8587 9.14125 25.625 15 25.625C20.8587 25.625 25.625 20.8587 25.625 15C25.625 9.14125 20.8587 4.375 15 4.375M15 27.5C8.1075 27.5 2.5 21.8925 2.5 15C2.5 8.1075 8.1075 2.5 15 2.5C21.8925 2.5 27.5 8.1075 27.5 15C27.5 21.8925 21.8925 27.5 15 27.5" fill="white"/>
<path fill-rule="evenodd" clip-rule="evenodd" d="M14.9927 16.7161C14.4752 16.7161 14.0552 16.2961 14.0552 15.7786V10.2549C14.0552 9.73738 14.4752 9.31738 14.9927 9.31738C15.5102 9.31738 15.9302 9.73738 15.9302 10.2549V15.7786C15.9302 16.2961 15.5102 16.7161 14.9927 16.7161" fill="white"/>
<path fill-rule="evenodd" clip-rule="evenodd" d="M15.0049 20.9951C14.3137 20.9951 13.7487 20.4364 13.7487 19.7451C13.7487 19.0539 14.3024 18.4951 14.9924 18.4951H15.0049C15.6962 18.4951 16.2549 19.0539 16.2549 19.7451C16.2549 20.4364 15.6962 20.9951 15.0049 20.9951" fill="white"/>
</svg>
