<svg width="24" height="18" viewBox="0 0 24 18" fill="none" xmlns="http://www.w3.org/2000/svg">
<path d="M22.0833 9.86263H1.91667C1.4125 9.86263 1 9.45013 1 8.94596C1 8.4418 1.4125 8.0293 1.91667 8.0293H22.0833C22.5875 8.0293 23 8.4418 23 8.94596C23 9.45013 22.5875 9.86263 22.0833 9.86263Z" fill="white" stroke="white"/>
<path d="M22.0833 2.83333H1.91667C1.4125 2.83333 1 2.42083 1 1.91667C1 1.4125 1.4125 1 1.91667 1H22.0833C22.5875 1 23 1.4125 23 1.91667C23 2.42083 22.5875 2.83333 22.0833 2.83333Z" fill="white" stroke="white"/>
<path d="M22.0833 16.887H1.91667C1.4125 16.887 1 16.4745 1 15.9704C1 15.4662 1.4125 15.0537 1.91667 15.0537H22.0833C22.5875 15.0537 23 15.4662 23 15.9704C23 16.4745 22.5875 16.887 22.0833 16.887Z" fill="white" stroke="white"/>
</svg>
